{"title":"Don Seenu BRRip 2010 Telugu 720P X264 DTS Team ICF@Mastitorrents","uid":6058714,"size":4149833769,"categoryP":"video","categoryS":"hd___movies","magnet":"?xt=urn:btih:f33c21cb8e5c8ea8964660f025b1e235898b71e2&amp;dn=Don+Seenu+BRRip+2010+Telugu+720P+X264+DTS+Team+ICF%40Mastitorrents&amp;tr=udp%3A%2F%2Ftracker.openbittorrent.com%3A80&amp;tr=udp%3A%2F%2Fopen.demonii.com%3A1337&amp;tr=udp%3A%2F%2Ftracker.coppersurfer.tk%3A6969&amp;tr=udp%3A%2F%2Fexodus.desync.com%3A6969","seeders":0,"leechers":1,"uploader":"amanrulz","files":1,"time":1293024493,"description":"mastitorrents.com\n &lt;a href=&quot;\nhttp://mastitorrents.com/forums/index.php&quot; rel=&quot;nofollow&quot; target=&quot;_NEW&quot;&gt;\nhttp://mastitorrents.com/forums/index.php&lt;/a&gt;\n\nGeneral\n\nFormat                           : Matroska\nFile size                        : 3.86 GiB\nDuration                         : 2h 46mn\nOverall bit rate                 : 3 317 Kbps\nEncoded date                     : UTC 2010-12-22 07:10:47\nWriting application              : mkvmerge v4.0.0 ('The Stars were mine') built on Jun  6 2010 16:18:42\nWriting library                  : libebml v1.0.0 + libmatroska v1.0.0\n\nSource        :    1080p @ sR33 (Thank You)\n\nEncoder      :     RajMahal @ Team ICF\n\n\nVideo\nID                               : 1\nFormat                           : AVC\nFormat/Info                      : Advanced Video Codec\nFormat profile                   : &lt;a class=&quot;__cf_email__&quot; href=&quot;/cdn-cgi/l/email-protection&quot; data-cfemail=&quot;1d55747a755d5129332c&quot;&gt;[email&amp;#160;protected]&lt;/a&gt;&lt;script cf-hash='f9e31' type=&quot;text/javascript&quot;&gt;\n/* &lt;![CDATA[ */!function(){try{var t=&quot;currentScript&quot;in document?document.currentScript:function(){for(var t=document.getElementsByTagName(&quot;script&quot;),e=t.length;e--;)if(t[e].getAttribute(&quot;cf-hash&quot;))return t[e]}();if(t&amp;&amp;t.previousSibling){var e,r,n,i,c=t.previousSibling,a=c.getAttribute(&quot;data-cfemail&quot;);if(a){for(e=&quot;&quot;,r=parseInt(a.substr(0,2),16),n=2;a.length-n;n+=2)i=parseInt(a.substr(n,2),16)^r,e+=String.fromCharCode(i);e=document.createTextNode(e),c.parentNode.replaceChild(e,c)}}}catch(u){}}();/* ]]&gt; */&lt;/script&gt;\nFormat settings, CABAC           : Yes\nFormat settings, ReFrames        : 3 frames\nCodec ID                         : V_MPEG4/ISO/AVC\nDuration                         : 2h 46mn\nBit rate mode                    : Variable\nBit rate                         : 1 800 Kbps\nMaximum bit rate                 : 6 000 Kbps\nWidth                            : 1 280 pixels\nHeight                           : 544 pixels\nDisplay aspect ratio             : 2.35:1\nFrame rate                       : 24.000 fps\nColor space                      : YUV\nChroma subsampling               : 4:2:0\nBit depth                        : 8 bits\nScan type                        : Progressive\nBits/(Pixel*Frame)               : 0.108\nStream size                      : 2.03 GiB (52%)\nWriting library                  : x264 core 98 r1649 20cbe10\n\nAudio\n\nID                               : 2\nFormat                           : DTS\nFormat/Info                      : Digital Theater Systems\nCodec ID                         : A_DTS\nDuration                         : 2h 46mn\nBit rate mode                    : Constant\nBit rate                         : 1 510 Kbps\nChannel(s)                       : 6 channels\nChannel positions                : Front: L C R, Side: L R, LFE\nSampling rate                    : 48.0 KHz\nBit depth                        : 24 bits\nCompression mode                 : Lossy\nStream size                      : 1.76 GiB (46%)\n\nText\nID                               : 3\nFormat                           : VobSub\nMuxing mode                      : zlib\nCodec ID                         : S_VOBSUB\nCodec ID/Info                    : The same subtitle format used on DVDs\nLanguage                         : English\n\nChapters                         : Muxed","torrent":{"xt":"urn:btih:f33c21cb8e5c8ea8964660f025b1e235898b71e2","amp;dn":"Don+Seenu+BRRip+2010+Telugu+720P+X264+DTS+Team+ICF%40Mastitorrents","amp;tr":["udp%3A%2F%2Ftracker.openbittorrent.com%3A80","udp%3A%2F%2Fopen.demonii.com%3A1337","udp%3A%2F%2Ftracker.coppersurfer.tk%3A6969","udp%3A%2F%2Fexodus.desync.com%3A6969"],"infoHash":"f33c21cb8e5c8ea8964660f025b1e235898b71e2","infoHashBuffer":{"type":"Buffer","data":[243,60,33,203,142,92,142,168,150,70,96,240,37,177,226,53,137,139,113,226]},"announce":[],"urlList":[]}}